. 
  
http://www.torrenting.com/        :     Greatest Movie Tracker on The Net!!!
 
http://www.Torrenting.com          :     Once & For all ;)


               www . Torrenting . Com 

(((((((((((((= Enjoy No RAR releases =))))))))))))))))))))


...................................NFO:....................................

.[img]http://www.comingsoon.net/gallery/40435/Take_Me_Home_Tonight_3.jpg[img]                                        
 

                  ::::::::::::  EP1C Presents  ::::::::::::

::File:: Take.Me.Home.Tonight.2011.DVDRip.XViD-EP1C

::Video Source:: DVD

::Language:::::: English
::IMDB:::::::::: http://www.imdb.com/title/tt0810922/
Follow an aimless college grad who pursues his dream girl at
 a wild Labor Day weekend party. He, his twin sister and their 
best friend struggle with their burgeoning adulthood over the course of the night. 

::Specs:::::::::

Format                           : AVI
Format/Info                      : Audio Video Interleave
File size                        : 699 MiB
Duration                         : 1h 37mn
Overall bit rate                 : 1 005 Kbps
Writing application              : VirtualDubMod 1.5.10.2 (build 2540/release)
Writing library                  : VirtualDubMod build 2540/release

Video
ID                               : 0
Format                           : MPEG-4 Visual
Format profile                   : Advanced Simple@L5
Format settings, BVOP            : 2
Format settings, QPel            : No
Format settings, GMC             : No warppoints
Format settings, Matrix          : Default (H.263)
Muxing mode                      : Packed bitstream
Codec ID                         : XVID
Codec ID/Hint                    : XviD
Duration                         : 1h 37mn
Bit rate                         : 861 Kbps
Width                            : 624 pixels
Height                           : 256 pixels
Display aspect ratio             : 2.40:1
Frame rate                       : 23.976 fps
Color space                      : YUV
Chroma subsampling               : 4:2:0
Bit depth                        : 8 bits
Scan type                        : Progressive
Compression mode                 : Lossy
Bits/(Pixel*Frame)               : 0.225
Stream size                      : 599 MiB (86%)
Writing library                  : XviD 1.2.1 (UTC 2008-12-04)

Audio
ID                               : 1
Format                           : MPEG Audio
Format version                   : Version 1
Format profile                   : Layer 3
Mode                             : Joint stereo
Mode extension                   : MS Stereo
Codec ID                         : 55
Codec ID/Hint                    : MP3
Duration                         : 1h 37mn
Bit rate mode                    : Variable
Bit rate                         : 128 Kbps
Channel(s)                       : 2 channels
Sampling rate                    : 48.0 KHz
Compression mode                 : Lossy
Stream size                      : 91.5 MiB (13%)
Alignment                        : Aligned on interleaves
Interleave, duration             : 24 ms (0.58 video frame)
Interleave, preload duration     : 224 ms
    

::NOTES::::::::: 
Presents Take Me Home Tonight
Enjoy. // EP1C

:: Got something we might be interested in? contact us: epic@hushmail.me ::

::::::::::::::::::::::::::::::::  RESPECT  :::::::::::::::::::::::::::::::::
IMAGiNE, Rx, FLAWL3SS, ViSiON, T0XiC, HiVE, bobwhite & All Our Friends!

                 ::::::::::::::::  We Are  ::::::::::::::::  
               :::::: Surpassing the usual or ordinary ::::::
::::::::::::::::::    Heroic and impressive in quality    ::::::::::::::::::     
 ::::::::::::::::::::::::::::::::   EP1C   ::::::::::::::::::::::::::::::::
